<svg width="120" height="36" viewBox="0 0 120 36" fill="none" xmlns="http://www.w3.org/2000/svg">
  <g>
    <path d="M16 6H9C7.34315 6 6 7.34315 6 9V16C6 17.6569 7.34315 19 9 19H16C17.6569 19 19 17.6569 19 16V9C19 7.34315 17.6569 6 16 6Z" fill="#466AF1"/>
    <path d="M16 22H9C7.34315 22 6 23.3431 6 25V32C6 33.6569 7.34315 35 9 35H16C17.6569 35 19 33.6569 19 32V25C19 23.3431 17.6569 22 16 22Z" fill="#466AF1" fill-opacity="0.6"/>
    <path d="M32 6H25C23.3431 6 22 7.34315 22 9V16C22 17.6569 23.3431 19 25 19H32C33.6569 19 35 17.6569 35 16V9C35 7.34315 33.6569 6 32 6Z" fill="#466AF1" fill-opacity="0.8"/>
    <path d="M32 22H25C23.3431 22 22 23.3431 22 25V32C22 33.6569 23.3431 35 25 35H32C33.6569 35 35 33.6569 35 32V25C35 23.3431 33.6569 22 32 22Z" fill="#466AF1" fill-opacity="0.4"/>
  </g>
  <path d="M46.576 27H42.864V11.016H50.96C54.288 11.016 56.192 12.888 56.192 15.912C56.192 18.728 54.352 20.824 50.96 20.824H46.576V27ZM46.576 14.52V17.32H49.928C50.736 17.32 51.32 17.128 51.672 16.776C52.04 16.408 52.224 15.944 52.224 15.416C52.224 14.872 52.04 14.424 51.672 14.072C51.32 13.72 50.736 13.528 49.928 13.528H46.576V14.52ZM62.0785 27.192C60.7825 27.192 59.6945 26.952 58.8145 26.472C57.9345 25.976 57.2865 25.32 56.8705 24.504C56.4705 23.672 56.2705 22.712 56.2705 21.624C56.2705 20.536 56.4705 19.584 56.8705 18.768C57.2865 17.936 57.9345 17.28 58.8145 16.8C59.6945 16.32 60.7825 16.08 62.0785 16.08C63.3745 16.08 64.4625 16.32 65.3425 16.8C66.2225 17.28 66.8625 17.936 67.2625 18.768C67.6785 19.584 67.8865 20.536 67.8865 21.624C67.8865 22.712 67.6785 23.672 67.2625 24.504C66.8625 25.32 66.2225 25.976 65.3425 26.472C64.4625 26.952 63.3745 27.192 62.0785 27.192ZM62.0785 24.072C62.7905 24.072 63.3345 23.824 63.7105 23.328C64.0865 22.832 64.2705 22.12 64.2705 21.192C64.2705 20.264 64.0865 19.552 63.7105 19.056C63.3345 18.56 62.7905 18.312 62.0785 18.312C61.3665 18.312 60.8145 18.56 60.4225 19.056C60.0465 19.552 59.8625 20.264 59.8625 21.192C59.8625 22.12 60.0465 22.832 60.4225 23.328C60.8145 23.824 61.3665 24.072 62.0785 24.072ZM74.4606 27.192C73.1646 27.192 72.0766 26.952 71.1966 26.472C70.3166 25.976 69.6686 25.32 69.2526 24.504C68.8526 23.672 68.6526 22.712 68.6526 21.624C68.6526 20.536 68.8526 19.584 69.2526 18.768C69.6686 17.936 70.3166 17.28 71.1966 16.8C72.0766 16.32 73.1646 16.08 74.4606 16.08C75.7566 16.08 76.8446 16.32 77.7246 16.8C78.6046 17.28 79.2446 17.936 79.6446 18.768C80.0606 19.584 80.2686 20.536 80.2686 21.624C80.2686 22.712 80.0606 23.672 79.6446 24.504C79.2446 25.32 78.6046 25.976 77.7246 26.472C76.8446 26.952 75.7566 27.192 74.4606 27.192ZM74.4606 24.072C75.1726 24.072 75.7166 23.824 76.0926 23.328C76.4686 22.832 76.6526 22.12 76.6526 21.192C76.6526 20.264 76.4686 19.552 76.0926 19.056C75.7166 18.56 75.1726 18.312 74.4606 18.312C73.7486 18.312 73.1966 18.56 72.8046 19.056C72.4286 19.552 72.2446 20.264 72.2446 21.192C72.2446 22.12 72.4286 22.832 72.8046 23.328C73.1966 23.824 73.7486 24.072 74.4606 24.072ZM82.3347 27V16.272H85.7347L85.9427 18.216C86.2867 17.576 86.7667 17.072 87.3827 16.704C88.0147 16.32 88.7507 16.128 89.5987 16.128C91.0387 16.128 92.1107 16.592 92.8147 17.52C93.5347 18.432 93.8947 19.816 93.8947 21.672C93.8947 22.776 93.7347 23.736 93.4147 24.552C93.0947 25.368 92.6307 26 92.0227 26.448C91.4147 26.896 90.6867 27.12 89.8387 27.12C89.1587 27.12 88.5747 27 88.0867 26.76C87.6147 26.504 87.2467 26.16 86.9827 25.728V31.08H82.3347V27ZM88.3427 24.048C89.0387 24.048 89.5667 23.824 89.9267 23.376C90.2867 22.912 90.4667 22.216 90.4667 21.288C90.4667 20.392 90.2947 19.72 89.9507 19.272C89.6227 18.824 89.1347 18.6 88.4867 18.6C87.8227 18.6 87.2947 18.8 86.9027 19.2C86.5267 19.584 86.3347 20.28 86.3347 21.288C86.3347 22.296 86.5347 23 86.9347 23.4C87.3347 23.832 87.7827 24.048 88.3427 24.048ZM104.349 27H99.7014V16.272H104.349V27ZM104.757 13.992H99.2934V11.016H104.757V13.992ZM114.26 27L112.028 22.968H110.548V27H106.164V11.016H113.804C115.26 11.016 116.452 11.304 117.38 11.88C118.308 12.456 118.964 13.208 119.348 14.136C119.748 15.064 119.948 16.064 119.948 17.136C119.948 18.32 119.644 19.368 119.036 20.28C118.444 21.176 117.556 21.8 116.372 22.152L119.228 27H114.26ZM110.548 14.376V19.608H113.468C114.276 19.608 114.86 19.368 115.22 18.888C115.58 18.408 115.76 17.8 115.76 17.064C115.76 16.392 115.58 15.808 115.22 15.312C114.876 14.816 114.308 14.568 113.516 14.568L110.548 14.376Z" fill="#466AF1"/>
</svg> 