<svg width="250" height="85" viewBox="0 0 250 85" xmlns="http://www.w3.org/2000/svg">
  <defs>
    <linearGradient id="unifiedGradient" x1="0%" y1="0%" x2="100%" y2="100%">
      <stop offset="0%" stop-color="var(--accent-color, #466af1)" stop-opacity="1"/>
      <stop offset="50%" stop-color="var(--accent-light, #6988f5)" stop-opacity="0.8"/>
      <stop offset="100%" stop-color="var(--info-color, #3b82f6)" stop-opacity="0.6"/>
    </linearGradient>
    <linearGradient id="topologyTextGradient" x1="0%" y1="0%" x2="100%" y2="0%">
      <stop offset="0%" stop-color="var(--text-color, #2c3e50)" stop-opacity="1"/>
      <stop offset="100%" stop-color="var(--text-secondary, #7f8c8d)" stop-opacity="0.8"/>
    </linearGradient>
  </defs>
  <style>
    .topologyDM {
      font-family: 'Inter', 'Segoe UI', sans-serif;
      font-size: 32px;
      font-weight: 800;
      fill: url(#topologyTextGradient);
    }
    .topologyJAI {
      font-family: 'Montserrat', 'Helvetica Neue', sans-serif;
      font-size: 24px;
      font-weight: 300;
      fill: var(--accent-color, #466af1);
      letter-spacing: 1px;
    }
    .topologyTools {
      font-family: 'Inter', 'Segoe UI', sans-serif;
      font-size: 14px;
      font-weight: 600;
      fill: var(--text-secondary, #7f8c8d);
      text-transform: uppercase;
    }
    .topologyDot {
      fill: url(#unifiedGradient);
      stroke: var(--accent-hover, #3155db);
      stroke-width: 1;
    }
    .topologyLine {
      stroke: var(--accent-light, #6988f5);
      stroke-width: 1.5;
      opacity: 0.7;
    }
    .topologyCircuit {
      stroke: var(--border-color, #bdc3c7);
      stroke-width: 1;
      fill: none;
      opacity: 0.8;
    }
  </style>

  <!-- Integrated network topology -->
  <circle class="topologyDot" cx="30" cy="25" r="3"/>
  <circle class="topologyDot" cx="50" cy="35" r="4"/>
  <circle class="topologyDot" cx="70" cy="20" r="3"/>
  <circle class="topologyDot" cx="90" cy="30" r="3"/>
  <circle class="topologyDot" cx="110" cy="25" r="4"/>
  
  <!-- Network connections -->
  <line class="topologyLine" x1="30" y1="25" x2="50" y2="35"/>
  <line class="topologyLine" x1="50" y1="35" x2="70" y2="20"/>
  <line class="topologyLine" x1="70" y1="20" x2="90" y2="30"/>
  <line class="topologyLine" x1="90" y1="30" x2="110" y2="25"/>
  <line class="topologyLine" x1="30" y1="25" x2="70" y2="20"/>
  <line class="topologyLine" x1="50" y1="35" x2="90" y2="30"/>
  
  <!-- Circuit elements weaved through -->
  <path class="topologyCircuit" d="M35 15 L45 15 L50 20"/>
  <path class="topologyCircuit" d="M75 15 L85 15 L90 20"/>
  <path class="topologyCircuit" d="M95 15 L105 15 L110 20"/>
  
  <!-- Typography layout -->
  <text x="20" y="60" class="topologyDM">DM</text>
  <text x="70" y="58" class="topologyJAI">JAI</text>
  
  <text x="130" y="50" class="topologyTools">Tools</text>
  <text x="130" y="65" class="topologyTools" style="font-size: 9px; opacity: 0.7;">Topology Solutions</text>
</svg> 