<svg width="32" height="32" viewBox="0 0 32 32" xmlns="http://www.w3.org/2000/svg">
  <defs>
    <linearGradient id="faviconGradient" x1="0%" y1="0%" x2="100%" y2="100%">
      <stop offset="0%" stop-color="#466af1" stop-opacity="1"/>
      <stop offset="50%" stop-color="#6988f5" stop-opacity="0.9"/>
      <stop offset="100%" stop-color="#3b82f6" stop-opacity="0.8"/>
    </linearGradient>
    <linearGradient id="faviconAccent" x1="0%" y1="0%" x2="100%" y2="100%">
      <stop offset="0%" stop-color="#5b7bf0" stop-opacity="1"/>
      <stop offset="100%" stop-color="#7794f5" stop-opacity="0.8"/>
    </linearGradient>
  </defs>
  <style>
    .favicon-dot {
      fill: url(#faviconGradient);
      stroke: #3155db;
      stroke-width: 0.5;
    }
    .favicon-line {
      stroke: url(#faviconAccent);
      stroke-width: 1;
      opacity: 0.8;
    }
    .favicon-circuit {
      stroke: #6988f5;
      stroke-width: 0.8;
      fill: none;
      opacity: 0.7;
    }
    .favicon-center {
      fill: url(#faviconGradient);
      stroke: #3155db;
      stroke-width: 1;
    }
  </style>

  <!-- Central hub representing the intelligent network -->
  <circle class="favicon-center" cx="16" cy="16" r="4"/>
  
  <!-- Network topology dots around the center -->
  <circle class="favicon-dot" cx="8" cy="8" r="2"/>
  <circle class="favicon-dot" cx="24" cy="8" r="2"/>
  <circle class="favicon-dot" cx="8" cy="24" r="2"/>
  <circle class="favicon-dot" cx="24" cy="24" r="2"/>
  <circle class="favicon-dot" cx="16" cy="4" r="1.5"/>
  <circle class="favicon-dot" cx="4" cy="16" r="1.5"/>
  <circle class="favicon-dot" cx="28" cy="16" r="1.5"/>
  <circle class="favicon-dot" cx="16" cy="28" r="1.5"/>
  
  <!-- Network connections to center -->
  <line class="favicon-line" x1="8" y1="8" x2="16" y2="16"/>
  <line class="favicon-line" x1="24" y1="8" x2="16" y2="16"/>
  <line class="favicon-line" x1="8" y1="24" x2="16" y2="16"/>
  <line class="favicon-line" x1="24" y1="24" x2="16" y2="16"/>
  <line class="favicon-line" x1="16" y1="4" x2="16" y2="16"/>
  <line class="favicon-line" x1="4" y1="16" x2="16" y2="16"/>
  <line class="favicon-line" x1="28" y1="16" x2="16" y2="16"/>
  <line class="favicon-line" x1="16" y1="28" x2="16" y2="16"/>
  
  <!-- Cross connections for network topology -->
  <line class="favicon-line" x1="8" y1="8" x2="24" y2="8" opacity="0.4"/>
  <line class="favicon-line" x1="8" y1="24" x2="24" y2="24" opacity="0.4"/>
  <line class="favicon-line" x1="8" y1="8" x2="8" y2="24" opacity="0.4"/>
  <line class="favicon-line" x1="24" y1="8" x2="24" y2="24" opacity="0.4"/>
  
  <!-- Circuit elements for the intelligent aspect -->
  <path class="favicon-circuit" d="M6 6 L10 6 L12 8"/>
  <path class="favicon-circuit" d="M22 6 L26 6 L24 8"/>
  <path class="favicon-circuit" d="M6 26 L10 26 L8 24"/>
  <path class="favicon-circuit" d="M22 26 L26 26 L24 24"/>
</svg> 