<svg xmlns="http://www.w3.org/2000/svg" width="260" height="95" viewBox="0 0 260 95">
  <defs>
    <linearGradient id="matrixGradient" x1="0%" y1="0%" x2="100%" y2="100%">
      <stop offset="0%" stop-color="var(--accent-color, #6988f5)" stop-opacity="1" />
      <stop offset="50%" stop-color="var(--success-color, #10b981)" stop-opacity="0.8" />
      <stop offset="100%" stop-color="var(--info-color, #3b82f6)" stop-opacity="0.6" />
    </linearGradient>
    <linearGradient id="textMatrixGradient" x1="0%" y1="0%" x2="100%" y2="0%">
      <stop offset="0%" stop-color="var(--text-color, #ffffff)" stop-opacity="1" />
      <stop offset="100%" stop-color="var(--success-color, #10b981)" stop-opacity="0.8" />
    </linearGradient>
    </defs>
  <circle cx="20" cy="30" r="4" fill="url(#matrixGradient)" />
  <circle cx="45" cy="20" r="3" fill="url(#matrixGradient)" />
  <circle cx="35" cy="50" r="5" fill="url(#matrixGradient)" />
  <circle cx="60" cy="45" r="3" fill="url(#matrixGradient)" />
  <circle cx="75" cy="25" r="4" fill="url(#matrixGradient)" />
  <circle cx="50" cy="65" r="3" fill="url(#matrixGradient)" />

  
  <line x1="20" y1="30" x2="45" y2="20" stroke="var(--success-color, #10b981)" stroke-width="1.5" opacity="0.7" />
  <line x1="20" y1="30" x2="35" y2="50" stroke="var(--success-color, #10b981)" stroke-width="1.5" opacity="0.7" />
  <line x1="45" y1="20" x2="75" y2="25" stroke="var(--success-color, #10b981)" stroke-width="1.5" opacity="0.7" />
  <line x1="35" y1="50" x2="60" y2="45" stroke="var(--success-color, #10b981)" stroke-width="1.5" opacity="0.7" />
  <line x1="35" y1="50" x2="50" y2="65" stroke="var(--success-color, #10b981)" stroke-width="1.5" opacity="0.7" />
  <line x1="60" y1="45" x2="75" y2="25" stroke="var(--success-color, #10b981)" stroke-width="1.5" opacity="0.7" />

  
  <path d="M15 15 L25 15 L30 20" stroke="var(--accent-color, #6988f5)" stroke-width="1" opacity="0.6" />
  <path d="M70 15 L80 15 L85 20" stroke="var(--accent-color, #6988f5)" stroke-width="1" opacity="0.6" />
  <circle cx="85" cy="20" r="2" fill="url(#matrixGradient)" />

  
  <text x="100" y="50" font-family="&quot;JetBrains Mono&quot;, &quot;Courier New&quot;, monospace" font-size="32px" font-weight="700" fill="url(#textMatrixGradient)">DMTools</text>
  <text x="105" y="70" font-family="&quot;Inter&quot;, sans-serif" font-size="11px" fill="var(--success-color, #10b981)" font-weight="500" opacity="0.9">Neural Network Solutions</text>
  <text x="105" y="85" style="font-size: 9px; opacity: 0.6;" font-family="&quot;Inter&quot;, sans-serif" font-size="11px" fill="var(--success-color, #10b981)" font-weight="500" opacity="0.9">// Connected Intelligence</text>
</svg>